<svg id="Capa_1" enable-background="new 0 0 512 512" height="512" viewBox="0 0 512 512" width="512" xmlns="http://www.w3.org/2000/svg" xmlns:xlink="http://www.w3.org/1999/xlink"><linearGradient id="SVGID_1_" gradientUnits="userSpaceOnUse" x1="256" x2="256" y1="512" y2="0"><stop offset="0" stop-color="#a93aff"/><stop offset="1" stop-color="#ff81ff"/></linearGradient><g><path d="m497 512h-482c-8.284 0-15-6.716-15-15v-300c0-8.284 6.716-15 15-15h76v-90h-15c-8.284 0-15-6.716-15-15v-62c0-8.284 6.716-15 15-15h360c8.284 0 15 6.716 15 15v62c0 8.284-6.716 15-15 15h-15v90h76c8.284 0 15 6.716 15 15v300c0 8.284-6.716 15-15 15zm-76-30h61v-30h-16c-8.284 0-15-6.716-15-15s6.716-15 15-15h16v-30h-16c-8.284 0-15-6.716-15-15s6.716-15 15-15h16v-30h-16c-8.284 0-15-6.716-15-15s6.716-15 15-15h16v-30h-16c-8.284 0-15-6.716-15-15s6.716-15 15-15h16v-30h-61zm-120 0h90v-390h-270v390h90v-105c0-8.284 6.716-15 15-15h60c8.284 0 15 6.716 15 15zm-60 0h30v-90h-30zm-211 0h61v-270h-61v30h16c8.284 0 15 6.716 15 15s-6.716 15-15 15h-16v30h16c8.284 0 15 6.716 15 15s-6.716 15-15 15h-16v30h16c8.284 0 15 6.716 15 15s-6.716 15-15 15h-16v30h16c8.284 0 15 6.716 15 15s-6.716 15-15 15h-16zm61-420h330v-32h-330zm255 360c-8.284 0-15-6.716-15-15v-30c0-8.284 6.716-15 15-15s15 6.716 15 15v30c0 8.284-6.716 15-15 15zm-180 0c-8.284 0-15-6.716-15-15v-30c0-8.284 6.716-15 15-15s15 6.716 15 15v30c0 8.284-6.716 15-15 15zm90-90c-57.897 0-105-47.103-105-105s47.103-105 105-105 105 47.103 105 105-47.103 105-105 105zm0-180c-41.355 0-75 33.645-75 75s33.645 75 75 75 75-33.645 75-75-33.645-75-75-75zm0 120c-8.284 0-15-6.716-15-15v-15h-15c-8.284 0-15-6.716-15-15s6.716-15 15-15h15v-15c0-8.284 6.716-15 15-15s15 6.716 15 15v15h15c8.284 0 15 6.716 15 15s-6.716 15-15 15h-15v15c0 8.284-6.716 15-15 15z" fill="url(#SVGID_1_)"/></g></svg>